<svg xmlns="http://www.w3.org/2000/svg" xmlns:xlink="http://www.w3.org/1999/xlink" width="500" zoomAndPan="magnify" viewBox="0 0 375 374.999991" height="500" preserveAspectRatio="xMidYMid meet" version="1.0"><defs><clipPath id="38c02adab7"><path d="M 13.167969 13.167969 L 361.832031 13.167969 L 361.832031 361.832031 L 13.167969 361.832031 Z M 13.167969 13.167969 " clip-rule="nonzero"/></clipPath><clipPath id="0d618214b2"><path d="M 187.5 13.167969 C 91.21875 13.167969 13.167969 91.21875 13.167969 187.5 C 13.167969 283.78125 91.21875 361.832031 187.5 361.832031 C 283.78125 361.832031 361.832031 283.78125 361.832031 187.5 C 361.832031 91.21875 283.78125 13.167969 187.5 13.167969 Z M 187.5 13.167969 " clip-rule="nonzero"/></clipPath><clipPath id="4baa7a948d"><path d="M 9 8.332031 L 366 8.332031 L 366 364 L 9 364 Z M 9 8.332031 " clip-rule="nonzero"/></clipPath></defs><g clip-path="url(#38c02adab7)"><g clip-path="url(#0d618214b2)"><path fill="#ffffff" d="M 13.167969 13.167969 L 361.832031 13.167969 L 361.832031 361.832031 L 13.167969 361.832031 Z M 13.167969 13.167969 " fill-opacity="1" fill-rule="nonzero"/></g></g><g clip-path="url(#4baa7a948d)"><path fill="#bf1e2e" d="M 175.820312 8.535156 C 175 8.613281 172.738281 8.816406 170.777344 8.984375 C 160.726562 9.84375 150.933594 11.621094 139.574219 14.683594 C 136.550781 15.503906 130.8125 17.335938 126.777344 18.792969 C 125.601562 19.222656 124.425781 19.632812 124.164062 19.726562 C 123.414062 19.953125 117.53125 22.398438 115.382812 23.371094 C 109.402344 26.042969 103.445312 29.085938 97.074219 32.75 C 94.25 34.375 87.695312 38.632812 84.480469 40.933594 C 80.296875 43.941406 74.1875 48.6875 72.019531 50.628906 C 71.550781 51.058594 70.152344 52.273438 68.917969 53.355469 C 66.171875 55.730469 57.203125 64.714844 54.457031 67.835938 C 33.214844 92.03125 19.445312 119.570312 13.113281 150.507812 C 10.925781 161.175781 9.898438 170.925781 9.695312 183.109375 C 9.394531 201.886719 11.636719 218.753906 16.832031 236.542969 C 17.691406 239.457031 19.746094 245.660156 20.585938 247.808594 C 22.0625 251.636719 22.695312 253.226562 23.667969 255.503906 C 29.832031 270.09375 38.183594 284.144531 48.105469 296.605469 C 52.421875 302.042969 55.726562 305.722656 61.425781 311.460938 C 66.023438 316.074219 70.675781 320.371094 74 323.0625 C 80.015625 327.898438 83.601562 330.589844 88.292969 333.730469 C 114.464844 351.253906 143.574219 361.230469 175.261719 363.492188 C 179.929688 363.828125 190.710938 363.9375 195.71875 363.695312 C 214.15625 362.800781 231.027344 359.4375 248.402344 353.160156 C 254.585938 350.9375 264.058594 346.824219 268.300781 344.527344 C 268.710938 344.304688 269.980469 343.632812 271.101562 343.035156 C 277.792969 339.503906 285.191406 334.886719 291.820312 330.085938 C 299.613281 324.445312 306.058594 318.914062 313.324219 311.644531 C 323.9375 301.054688 332.308594 290.347656 340.171875 277.363281 C 342.976562 272.730469 347.03125 265.105469 348.636719 261.519531 C 349.105469 260.472656 349.871094 258.753906 350.335938 257.710938 C 355.007812 247.171875 359.191406 234.261719 361.507812 223.089844 C 364.21875 210.03125 365.265625 199.585938 365.265625 185.816406 C 365.246094 171.917969 364.21875 161.847656 361.472656 148.730469 C 359.15625 137.746094 354.933594 124.5 350.746094 115.195312 C 341.03125 93.5625 329.488281 76.597656 313.605469 60.644531 C 308.207031 55.207031 305.703125 52.945312 299.5 47.863281 C 283.414062 34.710938 264.023438 24.023438 244.199219 17.390625 C 230.972656 12.984375 217.671875 10.199219 203.378906 8.855469 C 199.527344 8.5 197.679688 8.441406 188.152344 8.40625 C 182.191406 8.386719 176.644531 8.441406 175.820312 8.535156 Z M 199.546875 15.058594 C 206.574219 15.5625 216.941406 17.054688 223.554688 18.496094 C 233.382812 20.625 242.144531 23.316406 251.671875 27.105469 C 253.542969 27.855469 254.308594 28.191406 257.332031 29.554688 C 257.875 29.796875 258.363281 30.003906 258.417969 30.003906 C 258.605469 30.003906 266.097656 33.722656 268.113281 34.804688 C 274.296875 38.1875 277.117188 39.867188 282.742188 43.605469 C 299.109375 54.457031 314.765625 69.535156 326.421875 85.679688 C 339.445312 103.6875 348.710938 123.789062 354.035156 145.460938 C 356.578125 155.886719 358.015625 165.789062 358.652344 177.390625 C 358.929688 182.492188 358.761719 194.523438 358.371094 199.550781 C 356.761719 219.371094 351.886719 238.371094 343.835938 256.25 C 336.546875 272.429688 326.945312 287.171875 315.121094 300.34375 C 310.804688 305.164062 302.433594 313.273438 298.101562 316.894531 C 294.121094 320.203125 293.128906 320.988281 289.972656 323.339844 C 275.792969 333.878906 261.015625 341.78125 244.292969 347.742188 C 233.960938 351.421875 221.164062 354.503906 210.703125 355.832031 C 204.332031 356.632812 201.808594 356.839844 194.410156 357.230469 C 187.742188 357.585938 176.941406 357.230469 169.09375 356.371094 C 148.769531 354.1875 130.140625 348.804688 112.113281 339.949219 C 102.171875 335.054688 93.898438 330.011719 85.003906 323.398438 C 74.355469 315.476562 64.210938 305.816406 55.019531 294.832031 C 49.824219 288.628906 42.742188 278.410156 39.0625 271.851562 C 33.457031 261.855469 29.496094 253.320312 26.265625 244.292969 C 20.511719 228.207031 17.316406 212.515625 16.363281 195.71875 C 16.121094 191.441406 16.121094 180.886719 16.363281 176.382812 C 18.457031 137.523438 33.71875 100.828125 59.988281 71.460938 C 62.769531 68.339844 69.234375 61.839844 71.851562 59.523438 C 72.933594 58.570312 74.1875 57.429688 74.652344 57.019531 C 75.121094 56.589844 76.503906 55.394531 77.734375 54.367188 C 91.46875 42.933594 107.421875 33.382812 123.507812 27.03125 C 128.925781 24.882812 129.75 24.566406 133.503906 23.332031 C 148.09375 18.53125 163.414062 15.671875 178.996094 14.871094 C 182.84375 14.683594 195.941406 14.796875 199.546875 15.058594 Z M 199.546875 15.058594 " fill-opacity="1" fill-rule="nonzero"/></g><path fill="#bf1e2e" d="M 182.359375 24.511719 C 177.875 24.734375 173.746094 25.015625 171.488281 25.238281 C 147.871094 27.613281 125.378906 35.011719 105.105469 47.0625 C 89.46875 56.363281 76.296875 67.5 64.171875 81.660156 C 50.609375 97.503906 39.660156 117.328125 33.253906 137.617188 L 32.765625 139.203125 L 33.8125 141.820312 C 34.410156 143.257812 35.605469 146.246094 36.464844 148.453125 C 37.34375 150.65625 39.363281 155.699219 40.929688 159.660156 C 44.519531 168.683594 52.328125 188.300781 56.753906 199.457031 C 58.625 204.125 63.109375 215.390625 66.714844 224.492188 C 70.335938 233.589844 74.019531 242.835938 74.894531 245.042969 C 75.773438 247.246094 78.035156 252.964844 79.941406 257.746094 C 81.847656 262.527344 84.199219 268.488281 85.210938 271.011719 C 86.199219 273.535156 87.191406 276.054688 87.433594 276.617188 C 87.675781 277.175781 87.917969 277.8125 87.992188 278 C 88.066406 278.183594 88.160156 278.316406 88.199219 278.261719 C 88.253906 278.222656 88.570312 276.410156 88.925781 274.261719 C 89.769531 269.21875 91.765625 256.980469 92.945312 249.710938 C 93.46875 246.574219 94.402344 240.894531 95.019531 237.101562 C 95.632812 233.289062 96.699219 226.863281 97.351562 222.808594 C 98.027344 218.753906 99.148438 211.863281 99.875 207.488281 C 100.585938 203.117188 101.464844 197.699219 101.835938 195.4375 C 103.875 182.867188 103.855469 182.996094 104.058594 183.222656 C 104.097656 183.257812 104.808594 185.3125 105.628906 187.78125 C 107.480469 193.308594 113.8125 212.160156 121.640625 235.421875 C 124.890625 245.078125 129.675781 259.335938 132.289062 267.085938 C 137.167969 281.605469 137.578125 282.820312 137.597656 282.5 C 137.613281 282.390625 138.210938 279.585938 138.921875 276.242188 C 141.761719 263.128906 143.050781 257.128906 143.78125 253.824219 C 144.210938 251.917969 144.84375 248.984375 145.199219 247.285156 C 145.554688 245.582031 146.132812 242.894531 146.488281 241.304688 C 146.84375 239.71875 147.683594 235.851562 148.339844 232.710938 C 149.011719 229.574219 149.8125 225.835938 150.132812 224.398438 C 150.449219 222.960938 151.027344 220.269531 151.421875 218.417969 C 155.8125 198.074219 156.707031 193.980469 156.875 193.550781 C 157.007812 193.160156 157.0625 193.160156 158.203125 193.382812 C 158.855469 193.515625 161.003906 193.90625 162.984375 194.242188 C 166.050781 194.765625 166.574219 194.917969 166.574219 195.195312 C 166.574219 195.382812 166.066406 197.847656 165.453125 200.707031 C 163.359375 210.367188 163.621094 209.152344 160.050781 225.707031 C 159.230469 229.496094 157.511719 237.53125 156.203125 243.546875 C 154.914062 249.5625 153.4375 256.363281 152.933594 258.679688 C 152.132812 262.359375 150.804688 268.488281 149.757812 273.441406 C 149.570312 274.316406 148.917969 277.382812 148.28125 280.257812 C 147.664062 283.136719 146.5625 288.253906 145.835938 291.65625 C 145.105469 295.039062 144.152344 299.503906 143.703125 301.558594 C 143.257812 303.613281 142.621094 306.507812 142.304688 308.003906 C 140.621094 315.90625 139.820312 319.492188 139.746094 319.566406 C 139.59375 319.71875 139.5 319.472656 138.847656 317.4375 C 138.117188 315.121094 131.730469 296.066406 124.070312 273.347656 C 118.632812 257.222656 110.113281 231.816406 108.339844 226.453125 C 107.125 222.789062 107.21875 222.753906 106.527344 227.105469 C 105.796875 231.738281 104.304688 240.914062 102.769531 250.179688 C 101.988281 254.90625 100.902344 261.59375 100.34375 265.03125 C 99.761719 268.46875 98.640625 275.363281 97.820312 280.351562 C 97 285.339844 96.121094 290.757812 95.859375 292.402344 C 95.597656 294.046875 94.664062 299.6875 93.804688 304.9375 C 92.925781 310.1875 92.214844 314.5625 92.214844 314.617188 C 92.214844 314.914062 91.878906 314.503906 91.765625 314.074219 C 91.691406 313.8125 89.582031 308.394531 87.058594 302.0625 C 82.574219 290.832031 80.222656 284.910156 70.582031 260.640625 C 68.003906 254.160156 64.320312 244.910156 62.417969 240.089844 C 60.511719 235.253906 58.792969 230.9375 58.585938 230.46875 C 58.378906 230.003906 55.671875 223.203125 52.53125 215.335938 C 46.386719 199.867188 41.941406 188.65625 34.542969 170.03125 C 31.925781 163.453125 29.554688 157.511719 29.273438 156.804688 L 28.75 155.550781 L 28.542969 156.523438 C 27.816406 159.753906 26.714844 168.574219 26.226562 174.792969 C 25.910156 178.847656 25.910156 193.535156 26.226562 197.402344 C 27.796875 216.699219 31.703125 232.765625 38.949219 249.710938 C 45.695312 265.445312 55.316406 280.519531 66.976562 293.617188 C 69.609375 296.589844 76.597656 303.554688 79.882812 306.488281 C 91.636719 317.046875 104.996094 325.84375 119.398438 332.570312 C 125.320312 335.335938 130.367188 337.355469 136.867188 339.503906 C 143.667969 341.746094 151.308594 343.707031 158.257812 344.976562 C 168.496094 346.84375 176.324219 347.515625 187.683594 347.515625 C 198.59375 347.5 205.976562 346.882812 215.523438 345.183594 C 216.699219 344.976562 218.101562 344.714844 218.605469 344.640625 C 221.257812 344.171875 229.589844 342.136719 232.898438 341.144531 C 237.4375 339.78125 243.675781 337.617188 246.628906 336.402344 L 248.03125 335.804688 L 248.03125 237.15625 C 248.03125 161.472656 248.085938 138.324219 248.253906 137.765625 C 248.570312 136.699219 249.898438 135.28125 250.980469 134.871094 C 253.746094 133.804688 256.625 135.226562 257.464844 138.046875 C 257.707031 138.886719 257.746094 150.507812 257.746094 235.269531 C 257.746094 288.21875 257.800781 331.542969 257.855469 331.542969 C 257.914062 331.542969 258.304688 331.335938 258.734375 331.09375 C 259.164062 330.851562 260.566406 330.105469 261.855469 329.433594 C 283.5625 318.148438 302.339844 302.136719 317.285156 282.222656 C 318.929688 280.035156 319.566406 279.121094 322.460938 274.746094 C 334.082031 257.222656 342.191406 237.34375 346.207031 216.511719 C 347.796875 208.21875 348.617188 200.855469 348.953125 191.890625 C 349.925781 165.285156 344.488281 139.410156 332.851562 115.476562 C 329.300781 108.191406 324.929688 100.699219 320.445312 94.273438 C 312.09375 82.277344 301.949219 71.160156 291.09375 62.136719 C 290.308594 61.464844 289.28125 60.625 288.851562 60.25 C 285.695312 57.578125 278.054688 52.160156 272.839844 48.910156 C 267.347656 45.472656 256.230469 39.492188 255.914062 39.8125 C 255.839844 39.886719 255.78125 50.929688 255.78125 64.34375 L 255.78125 88.761719 L 255.351562 89.636719 C 254.8125 90.722656 253.464844 91.957031 252.53125 92.21875 C 251.5625 92.476562 249.804688 92.441406 249.074219 92.140625 C 248.140625 91.75 246.890625 90.554688 246.460938 89.601562 C 246.066406 88.761719 246.066406 88.648438 245.976562 62.0625 L 245.882812 35.363281 L 244.480469 34.84375 C 240.761719 33.402344 233.289062 30.992188 229.273438 29.929688 C 227.066406 29.332031 221.03125 27.929688 218.324219 27.386719 C 214.289062 26.566406 204.964844 25.257812 203.996094 25.371094 C 203.453125 25.425781 203.527344 25.144531 201.734375 33.554688 C 201.398438 35.046875 200.558594 38.988281 199.828125 42.332031 C 199.097656 45.679688 197.921875 51.132812 197.195312 54.476562 C 196.484375 57.820312 195.699219 61.464844 195.4375 62.605469 C 194.914062 64.941406 193.007812 73.738281 190.933594 83.34375 C 190.167969 86.929688 189.160156 91.601562 188.691406 93.710938 C 187.273438 100.269531 184.488281 113.046875 180.753906 130.421875 C 179.929688 134.214844 179.089844 138.082031 178.882812 139.015625 C 178.15625 142.378906 176.289062 151.125 176.289062 151.21875 C 176.289062 151.253906 175.933594 151.253906 175.503906 151.199219 C 174.308594 151.050781 167.078125 149.761719 166.796875 149.667969 C 166.480469 149.554688 166.535156 149.199219 167.789062 143.5 C 168.328125 141.035156 168.90625 138.382812 169.078125 137.617188 C 169.226562 136.851562 169.691406 134.703125 170.105469 132.851562 C 170.515625 131.003906 171.394531 126.929688 172.066406 123.789062 C 172.757812 120.652344 173.558594 116.953125 173.859375 115.570312 C 174.886719 110.898438 176.644531 102.808594 177.410156 99.222656 C 177.839844 97.261719 178.472656 94.328125 178.828125 92.683594 C 179.203125 91.039062 180.210938 86.40625 181.070312 82.410156 C 181.949219 78.390625 182.808594 74.414062 183.011719 73.535156 C 183.199219 72.65625 183.949219 69.164062 184.695312 65.78125 C 185.421875 62.378906 186.265625 58.511719 186.5625 57.1875 C 186.863281 55.839844 187.421875 53.320312 187.777344 51.582031 C 188.152344 49.824219 188.917969 46.292969 189.476562 43.734375 C 190.039062 41.15625 190.824219 37.550781 191.234375 35.703125 C 191.625 33.851562 192.300781 30.804688 192.730469 28.917969 C 193.140625 27.03125 193.476562 25.296875 193.476562 25.070312 C 193.476562 24.679688 193.363281 24.621094 192.207031 24.527344 C 190.933594 24.417969 184.414062 24.417969 182.359375 24.511719 Z M 253.726562 100.136719 C 254.25 100.363281 254.941406 100.886719 255.296875 101.277344 C 256.566406 102.734375 256.53125 102.378906 256.53125 112.207031 L 256.53125 121.082031 L 256.0625 121.980469 C 255.523438 123.0625 254.625 123.882812 253.464844 124.40625 C 252.8125 124.6875 252.363281 124.742188 251.375 124.6875 C 249.488281 124.539062 248.160156 123.679688 247.300781 121.996094 C 246.910156 121.230469 246.890625 121.101562 246.945312 112 L 247.003906 102.773438 L 247.617188 101.894531 C 249.039062 99.839844 251.542969 99.109375 253.726562 100.136719 Z M 170.683594 159.566406 C 172.328125 160.410156 173.335938 162.015625 173.335938 163.847656 C 173.335938 164.277344 173.148438 165.453125 172.945312 166.480469 C 172.140625 170.480469 170.871094 176.457031 170.496094 178.15625 C 170.273438 179.128906 169.992188 180.53125 169.84375 181.277344 C 169.523438 182.902344 169.078125 183.820312 168.125 184.734375 C 167.171875 185.667969 166.273438 186.003906 164.796875 186.003906 C 162.6875 186.003906 161.339844 185.183594 160.425781 183.371094 C 159.660156 181.839844 159.679688 181.148438 160.574219 176.960938 C 160.988281 175.113281 161.660156 171.9375 162.089844 169.9375 C 163.789062 161.808594 163.902344 161.472656 165.058594 160.335938 C 166.515625 158.914062 168.757812 158.597656 170.683594 159.566406 Z M 220.265625 247.695312 C 220.324219 247.9375 220.546875 252.496094 220.753906 257.839844 C 221.3125 272.09375 221.480469 275.71875 221.554688 275.792969 C 221.59375 275.832031 223.78125 275.515625 226.433594 275.085938 C 230.355469 274.449219 231.269531 274.355469 231.402344 274.5625 C 231.476562 274.691406 231.644531 275.363281 231.738281 276.035156 C 232.710938 282.332031 232.898438 283.601562 232.839844 283.789062 C 232.785156 283.957031 229.832031 284.460938 222.433594 285.582031 C 221.050781 285.789062 218.191406 286.238281 216.121094 286.59375 C 213.542969 287.003906 212.289062 287.132812 212.234375 287.003906 C 212.160156 286.78125 211.953125 281.976562 211.410156 268.769531 C 210.71875 252.140625 210.664062 250.554688 210.664062 249.207031 L 210.664062 247.863281 L 211.28125 247.769531 C 211.597656 247.714844 213.484375 247.582031 215.429688 247.507812 C 217.390625 247.414062 219.257812 247.320312 219.574219 247.320312 C 220.0625 247.285156 220.210938 247.359375 220.265625 247.695312 Z M 193.007812 251.804688 C 193.046875 251.9375 193.34375 258.34375 193.664062 266.058594 C 194 273.757812 194.261719 280.089844 194.28125 280.109375 C 194.335938 280.148438 199.882812 279.304688 201.136719 279.0625 C 201.695312 278.953125 202.628906 278.820312 203.191406 278.746094 L 204.21875 278.632812 L 204.835938 282.519531 C 205.769531 288.574219 205.75 288.160156 205.226562 288.273438 C 204.722656 288.386719 201.078125 288.964844 193.941406 290.050781 C 191.269531 290.460938 188.375 290.925781 187.496094 291.09375 C 186.621094 291.246094 185.683594 291.375 185.40625 291.375 L 184.917969 291.375 L 184.808594 289.265625 C 184.75 288.125 184.601562 284.722656 184.507812 281.753906 C 184.394531 278.765625 184.226562 274.449219 184.132812 272.132812 C 183.628906 260.34375 183.351562 253.113281 183.425781 252.609375 L 183.480469 252.046875 L 187.496094 251.84375 C 189.703125 251.730469 191.832031 251.617188 192.222656 251.617188 C 192.636719 251.601562 192.953125 251.675781 193.007812 251.804688 Z M 193.007812 251.804688 " fill-opacity="1" fill-rule="nonzero"/></svg>