<?xml version="1.0" standalone="no"?>
<!DOCTYPE svg PUBLIC "-//W3C//DTD SVG 20010904//EN"
 "http://www.w3.org/TR/2001/REC-SVG-20010904/DTD/svg10.dtd">
<svg version="1.0" xmlns="http://www.w3.org/2000/svg"
 width="1920.000000pt" height="1918.000000pt" viewBox="0 0 1920.000000 1918.000000"
 preserveAspectRatio="xMidYMid meet">

<g transform="translate(0.000000,1918.000000) scale(0.100000,-0.100000)"
fill="#000000" stroke="none">
<path d="M8975 19169 c-44 -4 -165 -15 -270 -24 -538 -46 -1062 -141 -1670
-305 -162 -44 -469 -142 -685 -220 -63 -23 -126 -45 -140 -50 -40 -12 -355
-143 -470 -195 -320 -143 -639 -306 -980 -502 -151 -87 -502 -315 -674 -438
-224 -161 -551 -415 -667 -519 -25 -23 -100 -88 -166 -146 -147 -127 -627
-608 -774 -775 -1137 -1295 -1874 -2769 -2213 -4425 -117 -571 -172 -1093
-183 -1745 -16 -1005 104 -1908 382 -2860 46 -156 156 -488 201 -603 79 -205
113 -290 165 -412 330 -781 777 -1533 1308 -2200 231 -291 408 -488 713 -795
246 -247 495 -477 673 -621 322 -259 514 -403 765 -571 1401 -938 2959 -1472
4655 -1593 250 -18 827 -24 1095 -11 987 48 1890 228 2820 564 331 119 838
339 1065 462 22 12 90 48 150 80 358 189 754 436 1109 693 417 302 762 598
1151 987 568 567 1016 1140 1437 1835 150 248 367 656 453 848 25 56 66 148
91 204 250 564 474 1255 598 1853 145 699 201 1258 201 1995 -1 744 -56 1283
-203 1985 -124 588 -350 1297 -574 1795 -520 1158 -1138 2066 -1988 2920 -289
291 -423 412 -755 684 -861 704 -1899 1276 -2960 1631 -708 236 -1420 385
-2185 457 -206 19 -305 22 -815 24 -319 1 -616 -2 -660 -7z m1270 -349 c376
-27 931 -107 1285 -184 526 -114 995 -258 1505 -461 100 -40 141 -58 303 -131
29 -13 55 -24 58 -24 10 0 411 -199 519 -257 331 -181 482 -271 783 -471 876
-581 1714 -1388 2338 -2252 697 -964 1193 -2040 1478 -3200 136 -558 213
-1088 247 -1709 15 -273 6 -917 -15 -1186 -86 -1061 -347 -2078 -778 -3035
-390 -866 -904 -1655 -1537 -2360 -231 -258 -679 -692 -911 -886 -213 -177
-266 -219 -435 -345 -759 -564 -1550 -987 -2445 -1306 -553 -197 -1238 -362
-1798 -433 -341 -43 -476 -54 -872 -75 -357 -19 -935 0 -1355 46 -1088 117
-2085 405 -3050 879 -532 262 -975 532 -1451 886 -570 424 -1113 941 -1605
1529 -278 332 -657 879 -854 1230 -300 535 -512 992 -685 1475 -308 861 -479
1701 -530 2600 -13 229 -13 794 0 1035 112 2080 929 4044 2335 5616 149 167
495 515 635 639 58 51 125 112 150 134 25 23 99 87 165 142 735 612 1589 1123
2450 1463 290 115 334 132 535 198 781 257 1601 410 2435 453 206 10 907 4
1100 -10z"/>
<path d="M9325 18314 c-240 -12 -461 -27 -582 -39 -1264 -127 -2468 -523
-3553 -1168 -837 -498 -1542 -1094 -2191 -1852 -726 -848 -1312 -1909 -1655
-2995 l-26 -85 56 -140 c32 -77 96 -237 142 -355 47 -118 155 -388 239 -600
192 -483 610 -1533 847 -2130 100 -250 340 -853 533 -1340 194 -487 391 -982
438 -1100 47 -118 168 -424 270 -680 102 -256 228 -575 282 -710 53 -135 106
-270 119 -300 13 -30 26 -64 30 -74 4 -10 9 -17 11 -14 3 2 20 99 39 214 45
270 152 925 215 1314 28 168 78 472 111 675 33 204 90 548 125 765 36 217 96
586 135 820 38 234 85 524 105 645 109 673 108 666 119 654 2 -2 40 -112 84
-244 99 -296 438 -1305 857 -2550 174 -517 430 -1280 570 -1695 261 -777 283
-842 284 -825 1 6 33 156 71 335 152 702 221 1023 260 1200 23 102 57 259 76
350 19 91 50 235 69 320 19 85 64 292 99 460 36 168 79 368 96 445 17 77 48
221 69 320 235 1089 283 1308 292 1331 7 21 10 21 71 9 35 -7 150 -28 256 -46
164 -28 192 -36 192 -51 0 -10 -27 -142 -60 -295 -112 -517 -98 -452 -289
-1338 -44 -203 -136 -633 -206 -955 -69 -322 -148 -686 -175 -810 -43 -197
-114 -525 -170 -790 -10 -47 -45 -211 -79 -365 -33 -154 -92 -428 -131 -610
-39 -181 -90 -420 -114 -530 -24 -110 -58 -265 -75 -345 -90 -423 -133 -615
-137 -619 -8 -8 -13 5 -48 114 -39 124 -381 1144 -791 2360 -291 863 -747
2223 -842 2510 -65 196 -60 198 -97 -35 -39 -248 -119 -739 -201 -1235 -42
-253 -100 -611 -130 -795 -31 -184 -91 -553 -135 -820 -44 -267 -91 -557 -105
-645 -14 -88 -64 -390 -110 -671 -47 -281 -85 -515 -85 -518 0 -16 -18 6 -24
29 -4 14 -117 304 -252 643 -240 601 -366 918 -882 2217 -138 347 -335 842
-437 1100 -102 259 -194 490 -205 515 -11 25 -156 389 -324 810 -329 828 -567
1428 -963 2425 -140 352 -267 670 -282 708 l-28 67 -11 -52 c-39 -173 -98
-645 -124 -978 -17 -217 -17 -1003 0 -1210 84 -1033 293 -1893 681 -2800 361
-842 876 -1649 1500 -2350 141 -159 515 -532 691 -689 629 -565 1344 -1036
2115 -1396 317 -148 587 -256 935 -371 364 -120 773 -225 1145 -293 548 -100
967 -136 1575 -136 584 1 979 34 1490 125 63 11 138 25 165 29 142 25 588 134
765 187 243 73 577 189 735 254 l75 32 0 5280 c0 4051 3 5290 12 5320 17 57
88 133 146 155 148 57 302 -19 347 -170 13 -45 15 -667 15 -5204 0 -2834 3
-5153 6 -5153 3 0 24 11 47 24 23 13 98 53 167 89 1162 604 2167 1461 2967
2527 88 117 122 166 277 400 622 938 1056 2002 1271 3117 85 444 129 838 147
1318 52 1424 -239 2809 -862 4090 -190 390 -424 791 -664 1135 -447 642 -990
1237 -1571 1720 -42 36 -97 81 -120 101 -169 143 -578 433 -857 607 -294 184
-889 504 -906 487 -4 -4 -7 -595 -7 -1313 l0 -1307 -23 -47 c-29 -58 -101
-124 -151 -138 -52 -14 -146 -12 -185 4 -50 21 -117 85 -140 136 -21 45 -21
51 -26 1474 l-5 1429 -75 28 c-199 77 -599 206 -814 263 -118 32 -441 107
-586 136 -216 44 -715 114 -767 108 -29 -3 -25 12 -121 -438 -18 -80 -63 -291
-102 -470 -39 -179 -102 -471 -141 -650 -38 -179 -80 -374 -94 -435 -28 -125
-130 -596 -241 -1110 -41 -192 -95 -442 -120 -555 -76 -351 -225 -1035 -425
-1965 -44 -203 -89 -410 -100 -460 -39 -180 -139 -648 -139 -653 0 -2 -19 -2
-42 1 -64 8 -451 77 -466 82 -17 6 -14 25 53 330 29 132 60 274 69 315 8 41
33 156 55 255 22 99 69 317 105 485 37 168 80 366 96 440 55 250 149 683 190
875 23 105 57 262 76 350 20 88 74 336 120 550 47 215 93 428 104 475 10 47
50 234 90 415 39 182 84 389 100 460 16 72 46 207 65 300 20 94 61 283 91 420
30 138 72 331 94 430 21 99 57 262 80 363 22 101 40 194 40 206 0 21 -6 24
-68 29 -68 6 -417 6 -527 1z m3820 -4048 c28 -12 65 -40 84 -61 68 -78 66 -59
66 -585 l0 -475 -25 -48 c-29 -58 -77 -102 -139 -130 -35 -15 -59 -18 -112
-15 -101 8 -172 54 -218 144 -21 41 -22 48 -19 535 l3 494 33 47 c76 110 210
149 327 94z m-4445 -3181 c88 -45 142 -131 142 -229 0 -23 -10 -86 -21 -141
-43 -214 -111 -534 -131 -625 -12 -52 -27 -127 -35 -167 -17 -87 -41 -136 -92
-185 -51 -50 -99 -68 -178 -68 -113 0 -185 44 -234 141 -41 82 -40 119 8 343
22 99 58 269 81 376 91 435 97 453 159 514 78 76 198 93 301 41z m2654 -4717
c3 -13 15 -257 26 -543 30 -763 39 -957 43 -961 2 -2 119 15 261 38 210 34
259 39 266 28 4 -7 13 -43 18 -79 52 -337 62 -405 59 -415 -3 -9 -161 -36
-557 -96 -74 -11 -227 -35 -338 -54 -138 -22 -205 -29 -208 -22 -4 12 -15 269
-44 976 -37 890 -40 975 -40 1047 l0 72 33 5 c17 3 118 10 222 14 105 5 205
10 222 10 26 2 34 -2 37 -20z m-1459 -220 c2 -7 18 -350 35 -763 18 -412 32
-751 33 -752 3 -2 300 43 367 56 30 6 80 13 110 17 l55 6 33 -208 c50 -324 49
-302 21 -308 -27 -6 -222 -37 -604 -95 -143 -22 -298 -47 -345 -56 -47 -8 -97
-15 -112 -15 l-26 0 -6 113 c-3 61 -11 243 -16 402 -6 160 -15 391 -20 515
-27 631 -42 1018 -38 1045 l3 30 215 11 c118 6 232 12 253 12 22 1 39 -3 42
-10z"/>
</g>
</svg>
